#N canvas 0 25 1440 847 12;
#X obj 225 61 dac~;
#X obj 212 33 *~;
#X obj 261 33 *~;
#X obj 215 244 hsl 128 15 0 1 0 0 empty empty Volume -2 -8 0 10 #00fc04 #000000 #000000 0 1;
#X floatatom 308 223 5 0 0 0 - - - 0;
#X obj 308 154 * 100;
#X obj 308 178 int;
#X msg 91 455 \; pd dsp 1;
#X msg 18 455 \; pd dsp 0;
#X obj 291 288 tgl 30 0 empty empty DSP 35 13 0 10 #00f8fc #000000 #000000 0 1;
#X floatatom 45 405 5 0 0 0 - - - 0;
#X obj 45 429 moses 1;
#X obj 214 284 vu 15 80 empty empty -1 -8 0 10 #404040 #fcfcfc 1 0;
#X obj 212 86 env~;
#X obj 212 110 - 100;
#X obj 212 9 inlet~;
#X obj 261 9 inlet~;
#X obj 261 86 env~;
#X obj 261 110 - 100;
#X obj 238 284 vu 15 80 empty empty -1 -8 0 10 #404040 #000000 1 0;
#X obj 9 95 line;
#X obj 9 64 pack;
#X floatatom 9 120 5 0 0 0 - - - 0;
#X msg 34 38 2000;
#X obj 291 334 tgl 30 0 empty empty Mute 35 13 0 10 #f8fc00 #000000 #000000 0 1;
#X floatatom 102 290 5 0 0 0 - - - 0;
#X obj 102 338 t b;
#X obj 102 362 bng 15 250 50 0 empty empty empty 17 7 0 10 #fcfcfc #000000 #000000;
#X obj 102 312 sel 0;
#X obj 134 338 - 1;
#X obj 34 9 loadbang;
#X floatatom 9 250 5 0 0 0 - - - 0;
#X obj 9 226 float;
#X floatatom 9 202 5 0 0 0 - - - 0;
#X obj 9 177 spigot;
#X obj 9 151 t f f;
#X text 109 426 DSP Control;
#X text 12 288 Mute Control;
#X text 269 60 Sound output;
#X text 304 98 Volume calculation;
#X text 311 9 Sound input;
#X text 52 76 Volume ramping;
#X text 52 227 Mute control;
#X text 73 30 Ramping duration (ms);
#X text 357 165 Volume display as %;
#X obj 509 240 delay 100 1 msec;
#X obj 508 351 delay 100 1 msec;
#X text 365 281 Clipping detection;
#X obj 237 262 tgl 17 0 empty c_r empty 17 7 0 10 #fc2828 #000000 #000000 0 1;
#X obj 213 262 tgl 17 0 empty c_l empty 17 7 0 10 #fc2828 #000000 #000000 0 1;
#X msg 398 336 \; c_r color 13;
#X msg 508 375 \; c_r color 0;
#X msg 403 232 \; c_l color 13;
#X msg 509 264 \; c_l color 0;
#X obj 403 204 threshold~ 1.01 100 -1.01 100;
#X obj 398 309 threshold~ 1.01 100 -1.01 100;
#X text 255 261 Clip;
#X obj 421 59 inlet;
#X obj 672 144 inlet;
#X connect 1 0 0 0;
#X connect 1 0 13 0;
#X connect 1 0 55 0;
#X connect 2 0 0 1;
#X connect 2 0 17 0;
#X connect 2 0 54 0;
#X connect 3 0 5 0;
#X connect 3 0 21 0;
#X connect 3 0 35 0;
#X connect 5 0 6 0;
#X connect 6 0 4 0;
#X connect 9 0 10 0;
#X connect 10 0 11 0;
#X connect 11 0 8 0;
#X connect 11 1 7 0;
#X connect 13 0 14 0;
#X connect 14 0 12 0;
#X connect 15 0 1 0;
#X connect 16 0 2 0;
#X connect 17 0 18 0;
#X connect 18 0 19 0;
#X connect 20 0 1 1;
#X connect 20 0 2 1;
#X connect 20 0 22 0;
#X connect 21 0 20 0;
#X connect 23 0 21 1;
#X connect 24 0 25 0;
#X connect 25 0 28 0;
#X connect 26 0 27 0;
#X connect 27 0 32 0;
#X connect 28 0 26 0;
#X connect 28 1 29 0;
#X connect 29 0 3 0;
#X connect 30 0 23 0;
#X connect 32 0 3 0;
#X connect 32 0 31 0;
#X connect 33 0 32 1;
#X connect 34 0 33 0;
#X connect 35 0 34 0;
#X connect 35 1 34 1;
#X connect 45 0 53 0;
#X connect 46 0 51 0;
#X connect 54 0 52 0;
#X connect 54 0 45 0;
#X connect 54 1 52 0;
#X connect 54 1 45 0;
#X connect 55 0 50 0;
#X connect 55 0 46 0;
#X connect 55 1 50 0;
#X connect 55 1 46 0;
#X connect 57 0 24 0;
#X connect 58 0 3 0;
#X coords 0 -1 1 1 160 170 1 200 200;
