#N canvas 0 25 1440 847 12;
#X obj 78 104 oscparse;
#X obj 78 82 netreceive -u -b;
#X text 105 21 receiving;
#X obj 379 360 print;
#X msg 73 57 listen 57110;
#N canvas 456 42 579 692 16x 0;
#X obj 84 387 *~ 0.064;
#X obj 84 412 rpole~ 0.93538;
#X obj 84 439 *~ 0.00431;
#X obj 84 465 cpole~ 0.96559 0.05592;
#X obj 84 505 cpole~ 0.96559 -0.05592;
#X obj 84 532 *~ 0.125;
#X obj 84 559 rzero~ -1;
#X obj 84 585 rzero~ -1;
#X obj 83 613 rzero~ -1;
#X obj 82 133 phasor~;
#X obj 83 647 outlet~;
#X obj 100 202 wrap~;
#X obj 100 172 -~;
#X obj 101 246 *~;
#X obj 83 275 +~;
#X obj 169 267 phasor~;
#X obj 205 321 wrap~;
#X obj 205 297 -~;
#X obj 227 355 *~;
#X obj 169 362 +~;
#X obj 84 347 +~;
#X obj 296 469 block~ 1024 1 16;
#X obj 169 30 inlet;
#X obj 208 81 r osc-params;
#X obj 169 211 *~;
#X obj 169 239 +~;
#X msg 293 409 \; osc-params 0.5 -0.5 0.5 0.5 1 0.5;
#X obj 293 383 loadbang;
#X obj 208 108 unpack f f f f f f;
#X connect 0 0 1 0;
#X connect 1 0 2 0;
#X connect 2 0 3 0;
#X connect 3 0 4 0;
#X connect 3 1 4 1;
#X connect 4 0 5 0;
#X connect 5 0 6 0;
#X connect 6 0 7 0;
#X connect 7 0 8 0;
#X connect 8 0 10 0;
#X connect 9 0 12 0;
#X connect 9 0 14 0;
#X connect 11 0 13 0;
#X connect 12 0 11 0;
#X connect 13 0 14 1;
#X connect 14 0 20 0;
#X connect 15 0 17 0;
#X connect 15 0 19 0;
#X connect 16 0 18 0;
#X connect 17 0 16 0;
#X connect 18 0 19 1;
#X connect 19 0 20 1;
#X connect 20 0 0 0;
#X connect 22 0 9 0;
#X connect 22 0 24 0;
#X connect 23 0 28 0;
#X connect 24 0 25 0;
#X connect 25 0 15 0;
#X connect 27 0 26 0;
#X connect 28 0 12 1;
#X connect 28 1 13 1;
#X connect 28 2 17 1;
#X connect 28 3 18 1;
#X connect 28 4 24 1;
#X connect 28 5 25 1;
#X restore 103 411 pd 16x;
#X obj 184 383 *~;
#X obj 183 353 +~ 0.2;
#X obj 183 407 *~ 2000;
#X obj 170 483 *~;
#X obj 103 479 *~;
#X obj 103 373 mtof;
#X obj 63 253 r \$0-note;
#X obj 63 308 makenote 1;
#X obj 294 933 s \$0-note;
#X obj 103 443 vcf~ 3;
#X floatatom 260 353 6 0 0 0 - - - 0;
#X floatatom 260 408 7 0 0 0 - - - 0;
#X obj 260 384 mtof;
#X obj 170 447 adsr 2 30 200 50 500;
#X obj 183 328 adsr 1 10 200 50 500;
#X obj 77 338 poly 1 1;
#X floatatom 361 883 5 0 0 0 - - - 0;
#X obj 63 279 unpack f f;
#X obj 294 907 pack f 200;
#X obj 450 254 bng 15 250 50 0 empty empty empty 17 7 0 10 #fcfcfc #000000 #000000;
#X obj 450 217 loadbang;
#X obj 294 847 random 1;
#X obj 294 875 + 25;
#X msg 260 280 40;
#X obj 293 790 metro 1 120 permin, f 19;
#X obj 251 738 tgl 19 0 empty empty empty 17 7 0 10 #dfdfdf #000000 #000000 0 1;
#X msg 423 703 0.5;
#X msg 459 703 1;
#X msg 388 703 4;
#X msg 293 738 tempo \$1 permin;
#X floatatom 293 702 5 0 0 0 - - - 0;
#X floatatom 423 764 5 0 0 0 - - - 0;
#X obj 423 740 expr 1/$f1;
#X obj 293 817 bng 19 250 50 0 empty empty empty 17 7 0 10 #dfdfdf #000000 #000000;
#X msg 260 639 200;
#X msg 304 637 150;
#X text 433 664 % 12) * 5) + 100;
#X msg 354 636 100;
#X obj 93 1129 soundfiler;
#X obj 93 976 bng 80 250 50 0 empty empty loadSounds 17 7 0 10 #ff0400 #000000 #000000;
#X floatatom 27 1181 7 0 0 0 - - - 0;
#X obj 92 945 loadbang;
#N canvas 0 22 450 278 (subpatch) 0;
#X array chime 79252 float 2;
#X coords 0 1 79252 -1 200 140 1 0 0;
#X restore 370 1058 graph;
#X obj 27 1204 s end;
#X obj 651 1031 bng 15 250 50 0 empty empty empty 17 7 0 10 #fcfcfc #000000 #000000;
#X msg 651 1051 0;
#X obj 651 1075 pack f f f;
#X msg 651 1099 \$1 \, \$2 \$3;
#X obj 651 1123 vline~;
#X obj 651 1290 *~;
#X obj 652 1349 dac~;
#X obj 654 1254 hsl 128 15 0 1 0 0 empty empty empty -2 -8 0 10 #fcfcfc #000000 #000000 0 1;
#X obj 671 999 r end;
#X obj 718 1000 r end;
#X obj 652 1219 rev1~;
#X msg 667 1186 15;
#X obj 682 1028 / 2;
#X obj 718 1024 / 44.1;
#X msg 93 1167 \; chime normalize;
#X msg 93 1091 read -resize chime.wav chime;
#X obj 651 1155 tabread4~ chime;
#X obj 459 326 select 255;
#X obj 367 31 r vowels;
#X obj 506 34 r consonants;
#X obj 646 28 r confidence;
#X floatatom 367 55 5 0 0 0 - - - 0;
#X floatatom 506 58 5 0 0 0 - - - 0;
#X floatatom 646 52 5 0 0 0 - - - 0;
#X msg 463 358 0;
#X obj 463 391 f;
#X obj 490 391 + 1;
#X obj 463 413 pack f f;
#X obj 511 357 t b f;
#X obj 463 435 route 0 1 2;
#X obj 463 526 pack f f f;
#X obj 462 492 f;
#X obj 510 464 t b f;
#X obj 463 550 unpack f f f;
#X obj 463 574 s vowels;
#X obj 500 608 s consonants;
#X obj 554 632 s confidence;
#X obj 183 218 cyclone/fromsymbol;
#X obj 78 128 unpack s s;
#X obj 506 81 % 7;
#X obj 506 105 route 0 1 2 3 4 5 6;
#X obj 638 80 -;
#X msg 608 55 1;
#X obj 611 844 r vowels;
#X obj 698 836 r consonants;
#X msg 401 632 50;
#X obj 375 118 +;
#X obj 375 142 s letters;
#X obj 289 523 r letters;
#X obj 698 860 % 12;
#X obj 611 868 % 48;
#X msg 714 1186 0.01;
#X floatatom 1116 1365 0 0 0 0 - - - 0;
#X floatatom 1116 1291 0 0 0 0 - - - 0;
#X floatatom 1133 1148 0 0 0 0 - - - 0;
#X obj 1133 1125 r incr;
#X obj 1115 1100 metro 50;
#X floatatom 1115 1218 5 0 0 0 - - - 0;
#X obj 1115 1239 s phase;
#X obj 1115 1195 +;
#X obj 1116 1314 s dropoff+;
#X obj 1116 1467 s interval+;
#X floatatom 1116 1444 0 0 0 0 - - - 0;
#X obj 1116 1388 s pitch+;
#X obj 1116 1268 r dropoff;
#X obj 1116 1342 r pitch;
#X obj 1116 1421 r interval;
#X obj 1115 1057 r metro;
#X obj 1172 1190 f;
#X obj 955 1051 shepvoice 0;
#X floatatom 1024 1546 0 0 0 0 - - - 0;
#X obj 1024 1523 r rev;
#X obj 1079 1523 r revtime;
#X floatatom 1079 1546 0 0 0 0 - - - 0;
#X obj 1172 1213 mod 10000;
#X obj 1115 1172 f;
#X obj 1016 1574 rev2~;
#X obj 1115 1080 tgl 15 0 empty empty empty 0 -6 0 8 #fcfcfc #000000 #000000 0 1;
#X obj 955 1073 shepvoice 500;
#X obj 955 1097 shepvoice 1000;
#X obj 955 1120 shepvoice 1500;
#X obj 955 1143 shepvoice 2000;
#X obj 955 1166 shepvoice 2500;
#X obj 955 1189 shepvoice 3000;
#X obj 955 1212 shepvoice 3500;
#X obj 955 1235 shepvoice 4000;
#X obj 955 1258 shepvoice 4500;
#X obj 955 1281 shepvoice 5000;
#X obj 955 1304 shepvoice 5500;
#X obj 955 1327 shepvoice 6000;
#X obj 955 1350 shepvoice 6500;
#X obj 955 1373 shepvoice 7000;
#X obj 955 1396 shepvoice 7500;
#X obj 955 1419 shepvoice 8000;
#X obj 955 1442 shepvoice 8500;
#X obj 955 1465 shepvoice 9000;
#X obj 955 1488 shepvoice 9500;
#X obj 1260 1034 loadbang;
#N canvas 0 22 450 278 (subpatch) 0;
#X array shep1 100 float 3;
#A 0 -0.492476 -0.493392 -0.494283 -0.495157 -0.496008 -0.496839 -0.497644 -0.498428 -0.499194 -0.499932 -0.50065 -0.501349 -0.502018 -0.502674 -0.503299 -0.503908 -0.504487 -0.505055 -0.505592 -0.50611 -0.506604 -0.507078 -0.50753 -0.507958 -0.508363 -0.508743 -0.509107 -0.50944 -0.509757 -0.510048 -0.510319 -0.510564 -0.510787 -0.510988 -0.511166 -0.511325 -0.511454 -0.511567 -0.511653 -0.511719 -0.511755 -0.511774 -0.511768 -0.511742 -0.511688 -0.511613 -0.511519 -0.511396 -0.511255 -0.511089 -0.510906 -0.510693 -0.510464 -0.510208 -0.509934 -0.509633 -0.509315 -0.508973 -0.508609 -0.508222 -0.507816 -0.507386 -0.506937 -0.506464 -0.505967 -0.505446 -0.504908 -0.504344 -0.503758 -0.503147 -0.502517 -0.501867 -0.501191 -0.500497 -0.499779 -0.499041 -0.498284 -0.497502 -0.496703 -0.49588 -0.495036 -0.494169 -0.493286 -0.492378 -0.491449 -0.490501 -0.489531 -0.488538 -0.487524 -0.486488 -0.485433 -0.484358 -0.48326 -0.482143 -0.481009 -0.47985 -0.478673 -0.477472 -0.476256 -0.475017;
#X coords 0 1 100 -1 200 140 1;
#X restore 1182 1547 graph;
#X obj 1054 1609 tgl 15 0 empty empty empty 17 7 0 10 #fcfcfc #000000 #000000 0 1;
#X obj 1054 1629 metro 50;
#X obj 1054 1653 tabwrite~ shep1;
#X obj 1260 1406 r consonants;
#X obj 1260 1430 * 1;
#X obj 1252 1250 r confidence;
#X obj 1252 1274 * 100;
#X obj 1256 1327 r letters;
#X obj 1256 1351 + 10;
#X obj 110 1499 mtof;
#X obj 110 1523 osc~;
#X obj 110 1563 *~;
#X obj 109 1297 r letters;
#X obj 315 1306 r confidence;
#X obj 315 1330 * 100;
#X obj 111 1360 *;
#X floatatom 233 1397 5 0 0 0 - - - 0;
#X floatatom 111 1432 5 0 0 0 - - - 0;
#X obj 609 964 select 6;
#X obj 202 1294 r vowels;
#X obj 111 1384 % 50;
#X obj 68 178 print;
#X msg 1262 1065 \; dropoff 10 \; pitch -5 \; interval 120 \; metro 1 \; rev 84 \; revtime 87 \; incr -2 \; pd dsp 1;
#X floatatom 596 1721 0 0 0 0 - - - 0;
#X floatatom 596 1647 0 0 0 0 - - - 0;
#X floatatom 613 1504 0 0 0 0 - - - 0;
#X obj 613 1481 r incr;
#X obj 595 1456 metro 50;
#X floatatom 595 1574 5 0 0 0 - - - 0;
#X obj 595 1595 s phase;
#X obj 595 1551 +;
#X obj 596 1670 s dropoff+;
#X obj 596 1823 s interval+;
#X floatatom 596 1800 0 0 0 0 - - - 0;
#X obj 596 1744 s pitch+;
#X obj 596 1624 r dropoff;
#X obj 596 1698 r pitch;
#X obj 596 1777 r interval;
#X obj 595 1413 r metro;
#X obj 652 1546 f;
#X obj 435 1407 shepvoice 0;
#X floatatom 504 1902 0 0 0 0 - - - 0;
#X obj 504 1879 r rev;
#X obj 559 1879 r revtime;
#X floatatom 559 1902 0 0 0 0 - - - 0;
#X obj 652 1569 mod 10000;
#X obj 595 1528 f;
#X obj 496 1930 rev2~;
#X obj 595 1436 tgl 15 0 empty empty empty 0 -6 0 8 #fcfcfc #000000 #000000 0 1;
#X obj 435 1429 shepvoice 500;
#X obj 435 1453 shepvoice 1000;
#X obj 435 1476 shepvoice 1500;
#X obj 435 1499 shepvoice 2000;
#X obj 435 1522 shepvoice 2500;
#X obj 435 1545 shepvoice 3000;
#X obj 435 1568 shepvoice 3500;
#X obj 435 1591 shepvoice 4000;
#X obj 435 1614 shepvoice 4500;
#X obj 435 1637 shepvoice 5000;
#X obj 435 1660 shepvoice 5500;
#X obj 435 1683 shepvoice 6000;
#X obj 435 1706 shepvoice 6500;
#X obj 435 1729 shepvoice 7000;
#X obj 435 1752 shepvoice 7500;
#X obj 435 1775 shepvoice 8000;
#X obj 435 1798 shepvoice 8500;
#X obj 435 1821 shepvoice 9000;
#X obj 435 1844 shepvoice 9500;
#X obj 740 1390 loadbang;
#N canvas 0 22 450 278 (subpatch) 0;
#X array shep2 100 float 3;
#A 0 -0.492476 -0.493392 -0.494283 -0.495157 -0.496008 -0.496839 -0.497644 -0.498428 -0.499194 -0.499932 -0.50065 -0.501349 -0.502018 -0.502674 -0.503299 -0.503908 -0.504487 -0.505055 -0.505592 -0.50611 -0.506604 -0.507078 -0.50753 -0.507958 -0.508363 -0.508743 -0.509107 -0.50944 -0.509757 -0.510048 -0.510319 -0.510564 -0.510787 -0.510988 -0.511166 -0.511325 -0.511454 -0.511567 -0.511653 -0.511719 -0.511755 -0.511774 -0.511768 -0.511742 -0.511688 -0.511613 -0.511519 -0.511396 -0.511255 -0.511089 -0.510906 -0.510693 -0.510464 -0.510208 -0.509934 -0.509633 -0.509315 -0.508973 -0.508609 -0.508222 -0.507816 -0.507386 -0.506937 -0.506464 -0.505967 -0.505446 -0.504908 -0.504344 -0.503758 -0.503147 -0.502517 -0.501867 -0.501191 -0.500497 -0.499779 -0.499041 -0.498284 -0.497502 -0.496703 -0.49588 -0.495036 -0.494169 -0.493286 -0.492378 -0.491449 -0.490501 -0.489531 -0.488538 -0.487524 -0.486488 -0.485433 -0.484358 -0.48326 -0.482143 -0.481009 -0.47985 -0.478673 -0.477472 -0.476256 -0.475017;
#X coords 0 1 100 -1 200 140 1 0 0;
#X restore 662 1903 graph;
#X obj 534 1965 tgl 15 0 empty empty empty 17 7 0 10 #fcfcfc #000000 #000000 0 1;
#X obj 534 1985 metro 50;
#X obj 740 1786 * 1;
#X obj 732 1606 r confidence;
#X obj 732 1630 * 100;
#X obj 736 1707 + 10;
#X msg 742 1421 \; dropoff 10 \; pitch -5 \; interval 120 \; metro 1 \; rev 84 \; revtime 87 \; incr -2 \; pd dsp 1;
#X obj 736 1683 r vowels;
#X obj 740 1762 r letters;
#X obj 534 2009 tabwrite~ shep2;
#X obj 987 1809 b_output_;
#X obj 96 1625 b_output_;
#X obj 755 563 osc~;
#X obj 755 509 mtof;
#X floatatom 755 537 5 0 0 0 - - - 0;
#X obj 861 563 osc~;
#X obj 861 509 mtof;
#X floatatom 861 537 5 0 0 0 - - - 0;
#X obj 973 565 osc~;
#X obj 973 511 mtof;
#X floatatom 973 539 5 0 0 0 - - - 0;
#X obj 1082 567 osc~;
#X obj 1082 513 mtof;
#X floatatom 1082 541 5 0 0 0 - - - 0;
#X obj 1150 303 vsl 15 128 0 1 0 0 empty empty distortion 0 -9 0 10 #e3c6ff #000000 #000000 0 1;
#X obj 900 824 *~;
#X obj 657 546 loadbang;
#X obj 667 608 hsl 100 19 0 0.2 0 0 empty empty empty -2 -10 0 12 #ffc7c6 #000000 #000000 0 1;
#X floatatom 753 264 5 0 0 0 - - - 0;
#X floatatom 783 290 5 0 0 0 - - - 0;
#X floatatom 812 318 5 0 0 0 - - - 0;
#X floatatom 849 338 5 0 0 0 - - - 0;
#X obj 753 240 unpack f f f f;
#X floatatom 1047 368 5 0 0 0 - - - 0;
#X obj 755 455 +;
#X obj 857 456 +;
#X obj 972 460 +;
#X obj 1080 458 +;
#X floatatom 755 479 5 0 0 0 - - - 0;
#X floatatom 857 480 5 0 0 0 - - - 0;
#X floatatom 972 484 5 0 0 0 - - - 0;
#X floatatom 1080 482 5 0 0 0 - - - 0;
#X obj 753 287 t f;
#X obj 783 313 t f;
#X obj 812 341 t f;
#X obj 849 361 t f;
#X obj 1047 391 t b f;
#X obj 757 710 *~;
#X obj 854 710 *~;
#X obj 975 712 *~;
#X obj 1074 708 *~;
#X obj 1167 563 bng 19 250 50 0 empty empty empty 0 -10 0 12 #fcfcfc #000000 #000000;
#X obj 1231 722 line;
#X obj 1256 624 bng 19 250 50 0 empty empty empty 0 -10 0 12 #fcfcfc #000000 #000000;
#X obj 1335 693 bng 19 250 50 0 empty empty empty 0 -10 0 12 #fcfcfc #000000 #000000;
#X floatatom 1165 767 5 0 0 0 - - - 0;
#X obj 1256 600 delay 1000;
#X obj 1335 669 delay 2000;
#X msg 1335 717 0 1000;
#X obj 1208 414 tgl 19 0 empty empty empty 17 7 0 10 #dfdfdf #000000 #000000 0 1;
#X msg 1380 379 0.5;
#X msg 1416 379 1;
#X msg 1345 379 4;
#X msg 1250 414 tempo \$1 permin;
#X floatatom 1250 378 5 0 0 0 - - - 0;
#X floatatom 1380 440 5 0 0 0 - - - 0;
#X obj 1380 416 expr 1/$f1;
#X obj 1250 493 bng 19 250 50 0 empty empty empty 17 7 0 10 #dfdfdf #000000 #000000;
#X msg 1217 315 200;
#X msg 1261 313 150;
#X text 1390 340 % 12) * 5) + 100;
#X msg 1311 312 100;
#X msg 657 570 0.01;
#X msg 621 197 list 45 48 51 55;
#X msg 752 198 list 46 50 53 57;
#X msg 887 197 list 48 51 55 58;
#X msg 1032 197 list 50 53 57 60;
#X msg 1183 196 list 51 55 58 62;
#X msg 1032 240 list 53 57 60 63;
#X msg 1184 240 list 55 59 62 65;
#X obj 935 64 % 3;
#X obj 935 88 route 0 1 2;
#X obj 1209 72 % 3;
#X obj 1209 96 route 0 1 2;
#X msg 1257 673 0.9 200;
#X msg 1166 601 0.9 1000;
#X obj 1250 466 metro 500, f 19;
#X obj 111 1408 + 25;
#X obj 654 413 / 20;
#X obj 66 674 bng 19 250 50 0 empty empty empty 0 -10 0 12 #fcfcfc #000000 #000000;
#X msg 66 698 0.7;
#X obj 230 1931 b_output_;
#X obj 890 880 b_output_;
#X obj 36 12 loadbang;
#X obj 484 1308 loadbang;
#X obj 481 839 loadbang;
#X obj 76 521 b_output_;
#X msg 1131 697 0.9;
#X msg 481 863 0.1;
#X msg 484 1332 0.02;
#X connect 0 0 88 0;
#X connect 0 0 170 0;
#X connect 1 0 0 0;
#X connect 4 0 1 0;
#X connect 5 0 15 0;
#X connect 6 0 8 0;
#X connect 7 0 6 0;
#X connect 7 0 6 1;
#X connect 8 0 15 1;
#X connect 9 0 10 1;
#X connect 10 0 315 0;
#X connect 10 0 315 1;
#X connect 11 0 5 0;
#X connect 12 0 23 0;
#X connect 13 0 21 0;
#X connect 13 1 21 1;
#X connect 15 0 10 0;
#X connect 16 0 18 0;
#X connect 17 0 8 1;
#X connect 18 0 17 0;
#X connect 19 0 9 0;
#X connect 19 0 9 1;
#X connect 20 0 7 0;
#X connect 21 1 11 0;
#X connect 21 2 19 0;
#X connect 21 2 20 0;
#X connect 22 0 24 1;
#X connect 23 0 13 0;
#X connect 23 1 13 2;
#X connect 24 0 14 0;
#X connect 25 0 29 0;
#X connect 26 0 25 0;
#X connect 27 0 28 0;
#X connect 28 0 24 0;
#X connect 29 0 16 0;
#X connect 30 0 39 0;
#X connect 31 0 30 0;
#X connect 32 0 38 0;
#X connect 33 0 38 0;
#X connect 34 0 38 0;
#X connect 35 0 30 0;
#X connect 36 0 35 0;
#X connect 37 0 30 1;
#X connect 38 0 37 0;
#X connect 39 0 27 0;
#X connect 40 0 36 0;
#X connect 41 0 36 0;
#X connect 43 0 36 0;
#X connect 44 0 64 0;
#X connect 44 0 46 0;
#X connect 45 0 65 0;
#X connect 46 0 49 0;
#X connect 47 0 45 0;
#X connect 50 0 51 0;
#X connect 50 0 61 0;
#X connect 51 0 52 0;
#X connect 52 0 53 0;
#X connect 53 0 54 0;
#X connect 54 0 66 0;
#X connect 55 0 56 0;
#X connect 55 0 56 1;
#X connect 57 0 55 1;
#X connect 58 0 62 0;
#X connect 59 0 63 0;
#X connect 60 0 55 0;
#X connect 61 0 60 1;
#X connect 62 0 52 1;
#X connect 63 0 52 2;
#X connect 65 0 44 0;
#X connect 66 0 60 0;
#X connect 67 0 74 0;
#X connect 67 1 78 0;
#X connect 68 0 71 0;
#X connect 69 0 72 0;
#X connect 70 0 73 0;
#X connect 70 0 92 0;
#X connect 71 0 96 0;
#X connect 71 0 299 0;
#X connect 72 0 89 0;
#X connect 72 0 96 1;
#X connect 72 0 301 0;
#X connect 73 0 91 1;
#X connect 73 0 307 0;
#X connect 74 0 75 1;
#X connect 75 0 76 0;
#X connect 75 0 77 0;
#X connect 76 0 75 1;
#X connect 77 0 79 0;
#X connect 78 0 75 0;
#X connect 78 1 77 1;
#X connect 79 0 81 1;
#X connect 79 1 80 1;
#X connect 79 2 82 0;
#X connect 80 0 83 0;
#X connect 81 0 80 0;
#X connect 82 0 81 0;
#X connect 82 1 80 2;
#X connect 83 0 84 0;
#X connect 83 1 85 0;
#X connect 83 2 86 0;
#X connect 87 0 67 0;
#X connect 87 0 3 0;
#X connect 88 1 87 0;
#X connect 89 0 90 0;
#X connect 90 0 292 0;
#X connect 90 1 293 0;
#X connect 90 2 294 0;
#X connect 90 3 295 0;
#X connect 90 4 296 0;
#X connect 90 6 297 0;
#X connect 90 7 298 0;
#X connect 91 0 243 0;
#X connect 92 0 91 0;
#X connect 93 0 100 0;
#X connect 94 0 99 0;
#X connect 95 0 36 0;
#X connect 96 0 97 0;
#X connect 98 0 36 0;
#X connect 100 0 167 0;
#X connect 101 0 57 0;
#X connect 102 0 113 0;
#X connect 103 0 110 0;
#X connect 104 0 125 1;
#X connect 105 0 104 0;
#X connect 106 0 125 0;
#X connect 107 0 108 0;
#X connect 109 0 118 0;
#X connect 109 0 107 0;
#X connect 112 0 111 0;
#X connect 114 0 103 0;
#X connect 115 0 102 0;
#X connect 116 0 112 0;
#X connect 117 0 127 0;
#X connect 118 0 124 0;
#X connect 119 0 128 0;
#X connect 120 0 126 1;
#X connect 121 0 120 0;
#X connect 122 0 123 0;
#X connect 123 0 126 2;
#X connect 124 0 109 1;
#X connect 125 0 109 0;
#X connect 126 0 229 0;
#X connect 126 1 151 0;
#X connect 126 1 229 1;
#X connect 127 0 106 0;
#X connect 128 0 129 0;
#X connect 129 0 130 0;
#X connect 130 0 131 0;
#X connect 131 0 132 0;
#X connect 132 0 133 0;
#X connect 133 0 134 0;
#X connect 134 0 135 0;
#X connect 135 0 136 0;
#X connect 136 0 137 0;
#X connect 137 0 138 0;
#X connect 138 0 139 0;
#X connect 139 0 140 0;
#X connect 140 0 141 0;
#X connect 141 0 142 0;
#X connect 142 0 143 0;
#X connect 143 0 144 0;
#X connect 144 0 145 0;
#X connect 145 0 146 0;
#X connect 146 0 126 0;
#X connect 146 0 229 0;
#X connect 146 0 229 1;
#X connect 147 0 171 0;
#X connect 147 0 149 0;
#X connect 149 0 150 0;
#X connect 150 0 151 0;
#X connect 152 0 153 0;
#X connect 153 0 112 0;
#X connect 154 0 155 0;
#X connect 155 0 103 0;
#X connect 156 0 157 0;
#X connect 157 0 102 0;
#X connect 158 0 159 0;
#X connect 159 0 160 0;
#X connect 160 0 230 1;
#X connect 160 0 230 0;
#X connect 161 0 164 0;
#X connect 162 0 163 0;
#X connect 162 0 165 0;
#X connect 164 0 169 0;
#X connect 165 0 160 1;
#X connect 166 0 158 0;
#X connect 167 0 50 0;
#X connect 168 0 164 1;
#X connect 169 0 306 0;
#X connect 172 0 183 0;
#X connect 173 0 180 0;
#X connect 174 0 195 1;
#X connect 175 0 174 0;
#X connect 176 0 195 0;
#X connect 177 0 178 0;
#X connect 179 0 188 0;
#X connect 179 0 177 0;
#X connect 182 0 181 0;
#X connect 184 0 173 0;
#X connect 185 0 172 0;
#X connect 186 0 182 0;
#X connect 187 0 197 0;
#X connect 188 0 194 0;
#X connect 189 0 198 0;
#X connect 190 0 196 1;
#X connect 191 0 190 0;
#X connect 192 0 193 0;
#X connect 193 0 196 2;
#X connect 194 0 179 1;
#X connect 195 0 179 0;
#X connect 196 0 310 0;
#X connect 196 1 228 0;
#X connect 196 1 310 1;
#X connect 197 0 176 0;
#X connect 198 0 199 0;
#X connect 199 0 200 0;
#X connect 200 0 201 0;
#X connect 201 0 202 0;
#X connect 202 0 203 0;
#X connect 203 0 204 0;
#X connect 204 0 205 0;
#X connect 205 0 206 0;
#X connect 206 0 207 0;
#X connect 207 0 208 0;
#X connect 208 0 209 0;
#X connect 209 0 210 0;
#X connect 210 0 211 0;
#X connect 211 0 212 0;
#X connect 212 0 213 0;
#X connect 213 0 214 0;
#X connect 214 0 215 0;
#X connect 215 0 216 0;
#X connect 216 0 196 0;
#X connect 216 0 310 0;
#X connect 216 0 310 1;
#X connect 217 0 225 0;
#X connect 217 0 219 0;
#X connect 219 0 220 0;
#X connect 220 0 228 0;
#X connect 221 0 182 0;
#X connect 222 0 223 0;
#X connect 223 0 173 0;
#X connect 224 0 172 0;
#X connect 226 0 224 0;
#X connect 227 0 221 0;
#X connect 231 0 266 0;
#X connect 232 0 233 0;
#X connect 233 0 231 0;
#X connect 233 0 316 0;
#X connect 234 0 267 0;
#X connect 235 0 236 0;
#X connect 236 0 234 0;
#X connect 236 0 316 0;
#X connect 237 0 268 0;
#X connect 238 0 239 0;
#X connect 239 0 237 0;
#X connect 239 0 316 0;
#X connect 240 0 269 0;
#X connect 241 0 242 0;
#X connect 242 0 240 0;
#X connect 242 0 316 0;
#X connect 243 0 252 0;
#X connect 244 0 311 1;
#X connect 244 0 311 0;
#X connect 245 0 291 0;
#X connect 246 0 244 1;
#X connect 247 0 261 0;
#X connect 248 0 262 0;
#X connect 249 0 263 0;
#X connect 250 0 264 0;
#X connect 251 0 247 0;
#X connect 251 1 248 0;
#X connect 251 2 249 0;
#X connect 251 3 250 0;
#X connect 252 0 265 0;
#X connect 253 0 257 0;
#X connect 254 0 258 0;
#X connect 255 0 259 0;
#X connect 256 0 260 0;
#X connect 257 0 232 0;
#X connect 258 0 235 0;
#X connect 259 0 238 0;
#X connect 260 0 241 0;
#X connect 261 0 253 0;
#X connect 262 0 254 0;
#X connect 263 0 255 0;
#X connect 264 0 256 0;
#X connect 265 0 256 0;
#X connect 265 0 255 0;
#X connect 265 0 254 0;
#X connect 265 0 253 0;
#X connect 265 1 256 1;
#X connect 265 1 255 1;
#X connect 265 1 254 1;
#X connect 265 1 253 1;
#X connect 266 0 244 0;
#X connect 267 0 244 0;
#X connect 268 0 244 0;
#X connect 269 0 244 0;
#X connect 270 0 304 0;
#X connect 270 0 275 0;
#X connect 272 0 303 0;
#X connect 272 0 276 0;
#X connect 273 0 277 0;
#X connect 274 0 269 1;
#X connect 274 0 268 1;
#X connect 274 0 267 1;
#X connect 274 0 266 1;
#X connect 275 0 272 0;
#X connect 276 0 273 0;
#X connect 277 0 271 0;
#X connect 278 0 305 0;
#X connect 279 0 285 0;
#X connect 280 0 285 0;
#X connect 281 0 285 0;
#X connect 282 0 305 0;
#X connect 283 0 282 0;
#X connect 284 0 305 1;
#X connect 285 0 284 0;
#X connect 286 0 270 0;
#X connect 287 0 283 0;
#X connect 288 0 283 0;
#X connect 290 0 283 0;
#X connect 291 0 246 0;
#X connect 292 0 251 0;
#X connect 293 0 251 0;
#X connect 294 0 251 0;
#X connect 295 0 251 0;
#X connect 296 0 251 0;
#X connect 297 0 251 0;
#X connect 298 0 251 0;
#X connect 299 0 300 0;
#X connect 300 0 287 0;
#X connect 300 1 288 0;
#X connect 300 2 290 0;
#X connect 301 0 302 0;
#X connect 302 0 281 0;
#X connect 302 1 279 0;
#X connect 302 2 280 0;
#X connect 303 0 271 0;
#X connect 304 0 271 0;
#X connect 305 0 286 0;
#X connect 306 0 166 0;
#X connect 308 0 230 2;
#X connect 308 0 229 2;
#X connect 308 0 310 2;
#X connect 308 0 311 2;
#X connect 308 0 315 2;
#X connect 308 0 309 0;
#X connect 312 0 4 0;
#X connect 312 0 31 0;
#X connect 313 0 318 0;
#X connect 314 0 317 0;
#X connect 316 0 274 0;
#X connect 317 0 311 3;
#X connect 317 0 315 3;
#X connect 318 0 310 3;
#X connect 318 0 230 3;
#X connect 318 0 229 3;
