#N canvas 0 25 1440 847 12;
#N canvas 456 42 579 692 16x 0;
#X obj 84 387 *~ 0.064;
#X obj 84 412 rpole~ 0.93538;
#X obj 84 439 *~ 0.00431;
#X obj 84 465 cpole~ 0.96559 0.05592;
#X obj 84 505 cpole~ 0.96559 -0.05592;
#X obj 84 532 *~ 0.125;
#X obj 84 559 rzero~ -1;
#X obj 84 585 rzero~ -1;
#X obj 83 613 rzero~ -1;
#X obj 82 133 phasor~;
#X obj 83 647 outlet~;
#X obj 100 202 wrap~;
#X obj 100 172 -~;
#X obj 101 246 *~;
#X obj 83 275 +~;
#X obj 169 267 phasor~;
#X obj 205 321 wrap~;
#X obj 205 297 -~;
#X obj 227 355 *~;
#X obj 169 362 +~;
#X obj 84 347 +~;
#X obj 296 469 block~ 1024 1 16;
#X obj 169 30 inlet;
#X obj 208 81 r osc-params;
#X obj 169 211 *~;
#X obj 169 239 +~;
#X msg 293 409 \; osc-params 0.5 -0.5 0.5 0.5 1 0.5;
#X obj 293 383 loadbang;
#X obj 208 108 unpack f f f f f f;
#X connect 0 0 1 0;
#X connect 1 0 2 0;
#X connect 2 0 3 0;
#X connect 3 0 4 0;
#X connect 3 1 4 1;
#X connect 4 0 5 0;
#X connect 5 0 6 0;
#X connect 6 0 7 0;
#X connect 7 0 8 0;
#X connect 8 0 10 0;
#X connect 9 0 12 0;
#X connect 9 0 14 0;
#X connect 11 0 13 0;
#X connect 12 0 11 0;
#X connect 13 0 14 1;
#X connect 14 0 20 0;
#X connect 15 0 17 0;
#X connect 15 0 19 0;
#X connect 16 0 18 0;
#X connect 17 0 16 0;
#X connect 18 0 19 1;
#X connect 19 0 20 1;
#X connect 20 0 0 0;
#X connect 22 0 9 0;
#X connect 22 0 24 0;
#X connect 23 0 28 0;
#X connect 24 0 25 0;
#X connect 25 0 15 0;
#X connect 27 0 26 0;
#X connect 28 0 12 1;
#X connect 28 1 13 1;
#X connect 28 2 17 1;
#X connect 28 3 18 1;
#X connect 28 4 24 1;
#X connect 28 5 25 1;
#X restore 108 224 pd 16x;
#X obj 105 387 output~;
#X obj 189 196 *~;
#X obj 188 166 +~ 0.2;
#X obj 188 220 *~ 2000;
#X obj 175 296 *~;
#X obj 108 292 *~;
#X obj 108 186 mtof;
#X obj 68 66 r \$0-note;
#X obj 68 121 makenote 1;
#X obj 299 746 s \$0-note;
#X obj 108 256 vcf~ 3;
#X floatatom 265 166 6 0 0 0 - - - 0;
#X floatatom 265 221 7 0 0 0 - - - 0;
#X obj 265 197 mtof;
#X obj 175 260 adsr 2 30 200 50 500;
#X obj 188 141 adsr 1 10 200 50 500;
#X obj 82 151 poly 1 1;
#X floatatom 366 696 5 0 0 0 - - - 0;
#X obj 68 92 unpack f f;
#X obj 299 720 pack f 200;
#X obj 846 808 dac~;
#X obj 713 410 osc~;
#X obj 713 356 mtof;
#X floatatom 713 384 5 0 0 0 - - - 0;
#X obj 819 410 osc~;
#X obj 819 356 mtof;
#X floatatom 819 384 5 0 0 0 - - - 0;
#X obj 931 412 osc~;
#X obj 931 358 mtof;
#X floatatom 931 386 5 0 0 0 - - - 0;
#X obj 1040 414 osc~;
#X obj 1040 360 mtof;
#X floatatom 1040 388 5 0 0 0 - - - 0;
#X obj 1113 167 vsl 15 128 0 1 0 0 empty empty distortion 0 -9 0 10 #e3c6ff #000000 #000000 0 1;
#X obj 455 67 bng 15 250 50 0 empty empty empty 17 7 0 10 #fcfcfc #000000 #000000;
#X obj 858 671 *~;
#X obj 943 642 loadbang;
#X msg 943 666 0.1;
#X obj 455 30 loadbang;
#X obj 950 710 hsl 100 19 0 0.2 0 0 empty empty empty -2 -10 0 12 #ffc7c6 #000000 #000000 0 1;
#X obj 299 660 random 1;
#X obj 299 688 + 25;
#X floatatom 711 111 5 0 0 0 - - - 0;
#X floatatom 741 137 5 0 0 0 - - - 0;
#X floatatom 770 165 5 0 0 0 - - - 0;
#X floatatom 807 185 5 0 0 0 - - - 0;
#X obj 711 87 unpack f f f f;
#X msg 710 45 list 58 62 65 69;
#X msg 845 44 list 60 63 67 70;
#X msg 990 44 list 62 65 69 72;
#X msg 1141 43 list 63 67 70 74;
#X msg 990 87 list 65 69 72 75;
#X msg 1142 87 list 67 71 74 77;
#X msg 579 44 list 57 60 63 67;
#X floatatom 1005 215 5 0 0 0 - - - 0;
#X obj 713 302 +;
#X obj 815 303 +;
#X obj 930 307 +;
#X obj 1038 305 +;
#X floatatom 713 326 5 0 0 0 - - - 0;
#X floatatom 815 327 5 0 0 0 - - - 0;
#X floatatom 930 331 5 0 0 0 - - - 0;
#X floatatom 1038 329 5 0 0 0 - - - 0;
#X obj 711 134 t f;
#X obj 741 160 t f;
#X obj 770 188 t f;
#X obj 807 208 t f;
#X obj 1005 238 t b f;
#X obj 715 557 *~;
#X obj 812 557 *~;
#X obj 933 559 *~;
#X obj 1032 555 *~;
#X msg 265 93 40;
#X obj 298 603 metro 1 120 permin, f 19;
#X obj 256 551 tgl 19 0 empty empty empty 17 7 0 10 #dfdfdf #000000 #000000 0 1;
#X msg 428 516 0.5;
#X msg 464 516 1;
#X msg 393 516 4;
#X msg 298 551 tempo \$1 permin;
#X floatatom 298 515 5 0 0 0 - - - 0;
#X floatatom 428 577 5 0 0 0 - - - 0;
#X obj 428 553 expr 1/$f1;
#X obj 298 630 bng 19 250 50 0 empty empty empty 17 7 0 10 #dfdfdf #000000 #000000;
#X msg 265 452 200;
#X msg 309 450 150;
#X text 438 477 % 12) * 5) + 100;
#X msg 359 449 100;
#X obj 1125 410 bng 19 250 50 0 empty empty empty 0 -10 0 12 #fcfcfc #000000 #000000;
#X obj 1123 590 line;
#X obj 1214 471 bng 19 250 50 0 empty empty empty 0 -10 0 12 #fcfcfc #000000 #000000;
#X obj 1293 540 bng 19 250 50 0 empty empty empty 0 -10 0 12 #fcfcfc #000000 #000000;
#X floatatom 1123 614 5 0 0 0 - - - 0;
#X obj 98 942 soundfiler;
#X obj 98 789 bng 80 250 50 0 empty empty loadSounds 17 7 0 10 #ff0400 #000000 #000000;
#X floatatom 32 994 7 0 0 0 - - - 0;
#X obj 97 758 loadbang;
#N canvas 0 22 450 278 (subpatch) 0;
#X array chime 79252 float 2;
#X coords 0 1 79252 -1 200 140 1 0 0;
#X restore 375 871 graph;
#X obj 32 1017 s end;
#X obj 656 844 bng 15 250 50 0 empty empty empty 17 7 0 10 #fcfcfc #000000 #000000;
#X msg 656 864 0;
#X obj 656 888 pack f f f;
#X msg 656 912 \$1 \, \$2 \$3;
#X obj 656 936 vline~;
#X obj 656 1103 *~;
#X obj 657 1162 dac~;
#X obj 659 1067 hsl 128 15 0 1 0 0 empty empty empty -2 -8 0 10 #fcfcfc #000000 #000000 0 1;
#X obj 676 812 r end;
#X obj 723 813 r end;
#X msg 719 999 0.6;
#X obj 657 1032 rev1~;
#X msg 672 999 15;
#X obj 687 841 / 2;
#X obj 723 837 / 44.1;
#X msg 98 980 \; chime normalize;
#X msg 98 904 read -resize chime.wav chime;
#X obj 656 968 tabread4~ chime;
#X obj 1214 447 delay 1000;
#X obj 1293 516 delay 2000;
#X msg 1293 564 0 1000;
#X msg 1215 520 0.5 200;
#X obj 1166 261 tgl 19 0 empty empty empty 17 7 0 10 #dfdfdf #000000 #000000 0 1;
#X msg 1338 226 0.5;
#X msg 1374 226 1;
#X msg 1303 226 4;
#X msg 1208 261 tempo \$1 permin;
#X floatatom 1208 225 5 0 0 0 - - - 0;
#X floatatom 1338 287 5 0 0 0 - - - 0;
#X obj 1338 263 expr 1/$f1;
#X obj 1208 340 bng 19 250 50 0 empty empty empty 17 7 0 10 #dfdfdf #000000 #000000;
#X msg 1175 162 200;
#X msg 1219 160 150;
#X text 1348 187 % 12) * 5) + 100;
#X msg 1269 159 100;
#X obj 1208 313 metro 4000, f 19;
#X msg 1124 448 0.5 1000;
#X connect 0 0 11 0;
#X connect 2 0 4 0;
#X connect 3 0 2 0;
#X connect 3 0 2 1;
#X connect 4 0 11 1;
#X connect 5 0 6 1;
#X connect 6 0 1 0;
#X connect 6 0 1 1;
#X connect 7 0 0 0;
#X connect 8 0 19 0;
#X connect 9 0 17 0;
#X connect 9 1 17 1;
#X connect 11 0 6 0;
#X connect 12 0 14 0;
#X connect 13 0 4 1;
#X connect 14 0 13 0;
#X connect 15 0 5 0;
#X connect 15 0 5 1;
#X connect 16 0 3 0;
#X connect 17 1 7 0;
#X connect 17 2 15 0;
#X connect 17 2 16 0;
#X connect 18 0 20 1;
#X connect 19 0 9 0;
#X connect 19 1 9 2;
#X connect 20 0 10 0;
#X connect 22 0 69 0;
#X connect 23 0 24 0;
#X connect 24 0 22 0;
#X connect 25 0 70 0;
#X connect 26 0 27 0;
#X connect 27 0 25 0;
#X connect 28 0 71 0;
#X connect 29 0 30 0;
#X connect 30 0 28 0;
#X connect 31 0 72 0;
#X connect 32 0 33 0;
#X connect 33 0 31 0;
#X connect 34 0 55 0;
#X connect 35 0 54 0;
#X connect 35 0 73 0;
#X connect 36 0 21 0;
#X connect 36 0 21 1;
#X connect 37 0 38 0;
#X connect 38 0 40 0;
#X connect 39 0 35 0;
#X connect 40 0 36 1;
#X connect 41 0 42 0;
#X connect 42 0 20 0;
#X connect 43 0 64 0;
#X connect 44 0 65 0;
#X connect 45 0 66 0;
#X connect 46 0 67 0;
#X connect 47 0 43 0;
#X connect 47 1 44 0;
#X connect 47 2 45 0;
#X connect 47 3 46 0;
#X connect 48 0 47 0;
#X connect 49 0 47 0;
#X connect 50 0 47 0;
#X connect 51 0 47 0;
#X connect 52 0 47 0;
#X connect 53 0 47 0;
#X connect 54 0 47 0;
#X connect 55 0 68 0;
#X connect 56 0 60 0;
#X connect 57 0 61 0;
#X connect 58 0 62 0;
#X connect 59 0 63 0;
#X connect 60 0 23 0;
#X connect 61 0 26 0;
#X connect 62 0 29 0;
#X connect 63 0 32 0;
#X connect 64 0 56 0;
#X connect 65 0 57 0;
#X connect 66 0 58 0;
#X connect 67 0 59 0;
#X connect 68 0 59 0;
#X connect 68 0 58 0;
#X connect 68 0 57 0;
#X connect 68 0 56 0;
#X connect 68 1 59 1;
#X connect 68 1 58 1;
#X connect 68 1 57 1;
#X connect 68 1 56 1;
#X connect 69 0 36 0;
#X connect 70 0 36 0;
#X connect 71 0 36 0;
#X connect 72 0 36 0;
#X connect 73 0 12 0;
#X connect 74 0 83 0;
#X connect 75 0 74 0;
#X connect 76 0 82 0;
#X connect 77 0 82 0;
#X connect 78 0 82 0;
#X connect 79 0 74 0;
#X connect 80 0 79 0;
#X connect 81 0 74 1;
#X connect 82 0 81 0;
#X connect 83 0 41 0;
#X connect 84 0 80 0;
#X connect 85 0 80 0;
#X connect 87 0 80 0;
#X connect 88 0 135 0;
#X connect 88 0 117 0;
#X connect 89 0 92 0;
#X connect 90 0 120 0;
#X connect 90 0 118 0;
#X connect 91 0 119 0;
#X connect 92 0 69 1;
#X connect 92 0 70 1;
#X connect 92 0 71 1;
#X connect 92 0 72 1;
#X connect 93 0 114 0;
#X connect 93 0 95 0;
#X connect 94 0 115 0;
#X connect 95 0 98 0;
#X connect 96 0 94 0;
#X connect 99 0 100 0;
#X connect 99 0 111 0;
#X connect 100 0 101 0;
#X connect 101 0 102 0;
#X connect 102 0 103 0;
#X connect 103 0 116 0;
#X connect 104 0 105 0;
#X connect 104 0 105 1;
#X connect 106 0 104 1;
#X connect 107 0 112 0;
#X connect 108 0 113 0;
#X connect 109 0 106 0;
#X connect 110 0 104 0;
#X connect 111 0 110 1;
#X connect 112 0 101 1;
#X connect 113 0 101 2;
#X connect 115 0 93 0;
#X connect 116 0 110 0;
#X connect 117 0 90 0;
#X connect 118 0 91 0;
#X connect 119 0 89 0;
#X connect 120 0 89 0;
#X connect 121 0 134 0;
#X connect 122 0 128 0;
#X connect 123 0 128 0;
#X connect 124 0 128 0;
#X connect 125 0 134 0;
#X connect 126 0 125 0;
#X connect 127 0 134 1;
#X connect 128 0 127 0;
#X connect 129 0 88 0;
#X connect 130 0 126 0;
#X connect 131 0 126 0;
#X connect 133 0 126 0;
#X connect 134 0 129 0;
#X connect 135 0 89 0;
